<svg width="20" height="12" viewBox="0 0 20 12" fill="none" xmlns="http://www.w3.org/2000/svg">
<path d="M12.0625 5.15625C12.0938 5.46875 12.1562 5.75 12.1562 6.15625C12.1562 9.59375 9.84375 12 6.375 12C3.0625 12 0.375 9.34375 0.375 6C0.375 2.6875 3.0625 0 6.375 0C8 0 9.34375 0.59375 10.4062 1.59375L8.78125 3.15625C8.34375 2.71875 7.5625 2.21875 6.375 2.21875C4.34375 2.21875 2.65625 3.90625 2.65625 6C2.65625 8.125 4.34375 9.8125 6.375 9.8125C8.75 9.8125 9.65625 8.09375 9.78125 7.21875H6.375V5.15625H12.0625ZM17.8438 5.34375H19.5938V7.09375H17.8438V8.84375H16.0938V7.09375H14.3438V5.34375H16.0938V3.625H17.8438V5.34375Z" fill="#F0F0F0"/>
</svg>
